<svg width="186" height="36" viewBox="0 0 186 36" fill="none" xmlns="http://www.w3.org/2000/svg">
<path d="M54.4616 18.3741H48.8174V24.2227H46.5161V10.5063H55.4408V12.3475H48.8174V16.5391H54.4305L54.4616 18.3741Z" fill="#425AF2"/>
<path d="M59.4823 11.5313H57.156V9.53064H59.4823V11.5313ZM59.4823 24.2228H57.156V14.0291H59.4823V24.2228Z" fill="#425AF2"/>
<path d="M61.6025 19.2396C61.5349 17.8531 61.9077 16.4804 62.669 15.3119C62.9985 14.8365 63.4458 14.4518 63.9685 14.1941C64.4913 13.9363 65.0722 13.8141 65.6564 13.839C66.2264 13.8291 66.7893 13.9644 67.2904 14.2317C67.7723 14.5079 68.1806 14.8928 68.4816 15.3548L68.7123 14.0292H70.6457V24.2229C70.6787 24.7885 70.5839 25.3542 70.3683 25.8795C70.1526 26.4047 69.8214 26.8764 69.3984 27.2607C68.4057 28.0338 67.1566 28.4165 65.8934 28.3347C65.3442 28.3302 64.7976 28.2602 64.2656 28.1261C63.7174 27.9979 63.1859 27.8085 62.6815 27.5614L63.0494 25.7633C63.4722 25.9679 63.9181 26.1224 64.3779 26.2236C64.8688 26.3345 65.371 26.3901 65.8747 26.3893C66.5447 26.4521 67.2138 26.2611 67.7457 25.8553C67.9548 25.6392 68.1151 25.3821 68.2161 25.1008C68.3171 24.8194 68.3566 24.5203 68.3319 24.2229V23.1734C68.0268 23.5674 67.6314 23.8849 67.1781 24.1001C66.7007 24.3212 66.1777 24.4304 65.6501 24.4193C65.0805 24.4455 64.5129 24.3346 63.9966 24.0961C63.4804 23.8576 63.0311 23.4988 62.6877 23.0507C61.9347 22.0071 61.5592 20.7451 61.6212 19.4667L61.6025 19.2396ZM63.9226 19.4421C63.8809 20.2281 64.0738 21.0089 64.4776 21.6883C64.6669 21.9681 64.9283 22.1935 65.2351 22.3412C65.542 22.489 65.8832 22.5538 66.2239 22.5291C66.6603 22.5402 67.0916 22.4342 67.4713 22.2222C67.823 22.0085 68.1096 21.7053 68.3007 21.3446V16.9014C68.0964 16.5498 67.8099 16.251 67.465 16.0299C67.088 15.8109 66.6552 15.7024 66.2177 15.7169C65.8597 15.6976 65.5037 15.7799 65.1919 15.9539C64.8801 16.128 64.6257 16.3866 64.4589 16.6988C64.0528 17.4929 63.8595 18.3759 63.8976 19.2641L63.9226 19.4421Z" fill="#425AF2"/>
<path d="M75.3358 15.3486C75.6575 14.8873 76.0847 14.5068 76.5832 14.2378C77.0868 13.9703 77.6512 13.8331 78.2234 13.8389C78.7019 13.8135 79.1802 13.8921 79.6244 14.0693C80.0685 14.2464 80.4674 14.5177 80.7929 14.8637C81.4124 15.547 81.7201 16.5964 81.716 18.0121V24.2228H79.3772V18.0121C79.4318 17.3963 79.264 16.7813 78.9032 16.2753C78.7245 16.087 78.505 15.9408 78.261 15.8473C78.017 15.7538 77.7548 15.7155 77.4937 15.7352C77.0491 15.7241 76.6078 15.8122 76.2027 15.993C75.849 16.1549 75.5423 16.4018 75.3109 16.711V24.2228H72.9846V9.53064H75.3109L75.3358 15.3486Z" fill="#425AF2"/>
<path d="M86.924 11.5563V14.0111H88.795V15.7049H86.924V21.3387C86.9072 21.4995 86.9227 21.6619 86.9698 21.8167C87.0169 21.9716 87.0946 22.1157 87.1985 22.2409C87.2971 22.3309 87.413 22.4006 87.5394 22.4459C87.6657 22.4912 87.8 22.5112 87.9344 22.5048C88.0588 22.5174 88.1842 22.5174 88.3086 22.5048C88.4255 22.4843 88.5403 22.4535 88.6516 22.4127L88.9011 24.0943C88.6787 24.2075 88.4416 24.2901 88.1963 24.3398C87.9202 24.402 87.6377 24.4329 87.3544 24.4318C86.9846 24.4523 86.6146 24.3969 86.2678 24.2691C85.921 24.1412 85.605 23.9438 85.3399 23.6892C84.7939 23.0414 84.5295 22.2079 84.604 21.3694V15.7233H83.0261V14.0295H84.604V11.5747L86.924 11.5563Z" fill="#425AF2"/>
<path d="M93.6532 19.0189V24.2231H91.3269V10.5068H96.6655C97.9787 10.4316 99.2719 10.8507 100.283 11.679C100.696 12.0843 101.024 12.5659 101.247 13.0962C101.471 13.6264 101.586 14.1949 101.586 14.769C101.586 15.3431 101.471 15.9115 101.247 16.4418C101.024 16.972 100.696 17.4536 100.283 17.859C99.2688 18.6807 97.9768 19.095 96.6655 19.0189H93.6532ZM93.6532 17.1778H96.6655C97.0196 17.2033 97.3753 17.1565 97.7101 17.0403C98.045 16.9242 98.3518 16.7411 98.6113 16.5027C99.0374 16.0285 99.2608 15.4106 99.235 14.7782C99.2579 14.4415 99.2056 14.1039 99.0818 13.7892C98.9581 13.4745 98.7659 13.1902 98.5187 12.9563C98.2715 12.7224 97.9753 12.5446 97.6508 12.4352C97.3264 12.3259 96.9816 12.2877 96.6405 12.3234H93.6282L93.6532 17.1778Z" fill="#425AF2"/>
<path d="M108.864 24.2229C108.785 23.9651 108.716 23.7135 108.658 23.468C108.602 23.2256 108.565 22.9794 108.545 22.7316C108.228 23.2272 107.802 23.6467 107.298 23.959C106.775 24.2805 106.169 24.4486 105.552 24.4438C104.643 24.5035 103.746 24.208 103.057 23.6214C102.762 23.3266 102.533 22.9747 102.384 22.588C102.235 22.2014 102.169 21.7884 102.19 21.3753C102.174 20.9228 102.274 20.4736 102.483 20.0699C102.691 19.6663 103 19.3214 103.382 19.0677C104.382 18.4639 105.547 18.1769 106.718 18.2454H108.527V17.3248C108.537 17.0992 108.501 16.8739 108.419 16.6627C108.338 16.4516 108.213 16.2592 108.053 16.0974C107.866 15.9358 107.649 15.8124 107.413 15.7345C107.178 15.6565 106.929 15.6255 106.681 15.6432C106.234 15.6241 105.793 15.7563 105.433 16.0176C105.283 16.13 105.161 16.2759 105.079 16.4433C104.996 16.6108 104.955 16.7951 104.959 16.9811H102.72V16.9259C102.709 16.5081 102.803 16.094 102.993 15.7204C103.184 15.3468 103.465 15.0252 103.812 14.7841C104.672 14.1354 105.735 13.8013 106.818 13.839C107.87 13.7901 108.905 14.1122 109.737 14.7472C110.113 15.0663 110.409 15.4667 110.601 15.9171C110.794 16.3675 110.878 16.8556 110.847 17.3432V21.8724C110.846 22.283 110.875 22.6932 110.934 23.0998C110.991 23.4862 111.085 23.8663 111.215 24.2351L108.864 24.2229ZM106.02 22.5843C106.577 22.5899 107.124 22.4388 107.598 22.1485C108.006 21.9246 108.332 21.5786 108.527 21.1605V19.6507H106.656C106.082 19.6184 105.515 19.7954 105.065 20.1479C104.889 20.2875 104.746 20.4639 104.646 20.6645C104.547 20.865 104.494 21.0847 104.492 21.3078C104.483 21.4806 104.514 21.6532 104.581 21.8133C104.647 21.9734 104.749 22.1172 104.878 22.2345C105.199 22.4915 105.608 22.6168 106.02 22.5843Z" fill="#425AF2"/>
<path d="M115.351 14.0293L115.488 15.5022C115.796 14.9993 116.224 14.578 116.735 14.2748C117.265 13.9771 117.865 13.8246 118.475 13.8329C118.938 13.8109 119.401 13.8872 119.831 14.0566C120.262 14.226 120.65 14.4846 120.97 14.8149C121.593 15.4654 121.874 16.4903 121.874 17.8834V24.223H119.548V17.9018C119.608 17.3018 119.441 16.7011 119.08 16.2141C118.892 16.0394 118.669 15.9051 118.425 15.8195C118.182 15.734 117.922 15.6991 117.664 15.717C117.218 15.7055 116.775 15.8002 116.373 15.9932C116.035 16.184 115.752 16.4564 115.55 16.7849V24.223H113.224V14.0293H115.351Z" fill="#425AF2"/>
<path d="M123.882 19.2395C123.817 17.8541 124.187 16.4828 124.942 15.3118C125.269 14.8323 125.715 14.4431 126.238 14.181C126.761 13.9189 127.343 13.7927 127.929 13.8143C128.453 13.8082 128.97 13.9238 129.439 14.1518C129.891 14.3824 130.285 14.7095 130.592 15.1092V9.53064H132.919V24.2228H131.048L130.755 22.9217C130.447 23.3812 130.032 23.762 129.545 24.0325C129.041 24.2931 128.479 24.424 127.911 24.413C127.34 24.4392 126.772 24.3283 126.254 24.0899C125.737 23.8514 125.287 23.4926 124.942 23.0444C124.194 21.9988 123.821 20.7378 123.882 19.4604V19.2395ZM126.208 19.442C126.172 20.231 126.369 21.0134 126.776 21.6943C126.965 21.9742 127.226 22.1995 127.533 22.3472C127.84 22.495 128.181 22.5598 128.522 22.5351C128.959 22.5496 129.392 22.441 129.769 22.2221C130.124 22.005 130.414 21.7003 130.611 21.3383V16.9135C130.41 16.5544 130.121 16.2505 129.769 16.0298C129.392 15.8111 128.959 15.7026 128.522 15.7168C128.165 15.6987 127.81 15.7815 127.5 15.9555C127.189 16.1295 126.936 16.3874 126.769 16.6987C126.363 17.4928 126.17 18.3758 126.208 19.264V19.442Z" fill="#425AF2"/>
<path d="M139.73 24.4193C139.07 24.4541 138.411 24.3457 137.799 24.1017C137.187 23.8578 136.636 23.4843 136.187 23.0078C135.298 21.9998 134.832 20.6963 134.884 19.3624V18.9819C134.834 17.6413 135.289 16.3298 136.162 15.2996C136.563 14.8281 137.068 14.4526 137.639 14.2016C138.21 13.9507 138.831 13.8309 139.455 13.8513C140.046 13.8116 140.638 13.9054 141.186 14.1256C141.734 14.3458 142.224 14.6865 142.617 15.1217C143.373 16.0894 143.753 17.2905 143.69 18.5093V19.7367H137.31V19.7797C137.301 20.5122 137.536 21.2275 137.977 21.8172C138.211 22.082 138.503 22.2898 138.832 22.424C139.162 22.5582 139.518 22.6152 139.873 22.5905C140.429 22.6023 140.983 22.5257 141.513 22.3634C141.973 22.2088 142.405 21.9829 142.792 21.6945L143.547 23.1919C143.084 23.572 142.553 23.8634 141.981 24.0511C141.258 24.3018 140.496 24.4264 139.73 24.4193ZM139.48 15.6801C139.206 15.6665 138.933 15.7148 138.681 15.8212C138.429 15.9275 138.206 16.0892 138.027 16.2938C137.644 16.7917 137.419 17.3893 137.378 18.0122V18.0552H141.426V17.8772C141.451 17.3141 141.289 16.7581 140.965 16.2938C140.787 16.0802 140.559 15.9127 140.3 15.8057C140.041 15.6987 139.76 15.6556 139.48 15.6801Z" fill="#425AF2"/>
<path d="M147.763 14.0291L147.888 15.3547C148.209 14.8912 148.636 14.5086 149.135 14.2378C149.683 13.9636 150.292 13.8266 150.906 13.8389C151.521 13.8228 152.127 13.9804 152.653 14.293C153.154 14.6187 153.537 15.0941 153.744 15.6493C154.036 15.1086 154.466 14.6518 154.991 14.3237C155.546 13.9941 156.184 13.826 156.831 13.8389C157.307 13.8177 157.781 13.9066 158.215 14.0985C158.65 14.2903 159.032 14.5798 159.332 14.9436C160.007 15.8853 160.326 17.029 160.236 18.1778V24.2535H157.91V18.1348C157.974 17.4765 157.814 16.8161 157.455 16.2569C157.286 16.07 157.075 15.924 156.839 15.8304C156.603 15.7367 156.349 15.6978 156.095 15.7168C155.646 15.706 155.207 15.8443 154.848 16.1096C154.497 16.3849 154.236 16.7565 154.099 17.1774C154.099 17.2695 154.099 17.3493 154.099 17.4229C154.099 17.4966 154.099 17.5579 154.099 17.6193V24.2228H151.773V18.1348C151.83 17.4878 151.668 16.8406 151.312 16.2937C151.144 16.1023 150.933 15.9517 150.696 15.8537C150.459 15.7558 150.202 15.7131 149.946 15.7291C149.53 15.7143 149.117 15.8074 148.748 15.9991C148.427 16.1716 148.162 16.4288 147.981 16.7417V24.2228H145.655V14.0291H147.763Z" fill="#425AF2"/>
<path d="M165.026 11.5313H162.699V9.53064H165.026V11.5313ZM165.026 24.2228H162.699V14.0291H165.026V24.2228Z" fill="#425AF2"/>
<path d="M171.749 22.5907C172.243 22.6011 172.723 22.4255 173.09 22.0997C173.267 21.9468 173.407 21.7578 173.502 21.5457C173.597 21.3337 173.643 21.1039 173.639 20.8723H175.747V20.9275C175.758 21.3962 175.659 21.8612 175.459 22.2868C175.259 22.7123 174.963 23.0871 174.593 23.3823C173.807 24.0728 172.783 24.4436 171.73 24.4195C171.079 24.457 170.428 24.3451 169.828 24.0927C169.229 23.8403 168.697 23.4543 168.275 22.965C167.437 21.9193 167.006 20.6136 167.059 19.2828V18.9514C167.006 17.6207 167.437 16.3151 168.275 15.2692C168.695 14.7802 169.224 14.3937 169.822 14.1403C170.419 13.8868 171.068 13.7733 171.718 13.8085C172.263 13.7935 172.805 13.8862 173.313 14.0812C173.821 14.2762 174.283 14.5696 174.674 14.9439C175.045 15.2911 175.335 15.7136 175.523 16.182C175.711 16.6504 175.794 17.1535 175.765 17.6565V17.7178H173.657C173.672 17.195 173.485 16.6861 173.133 16.294C172.965 16.0963 172.754 15.9383 172.516 15.8321C172.277 15.7258 172.017 15.6739 171.755 15.6803C171.396 15.6515 171.036 15.7254 170.718 15.893C170.401 16.0607 170.139 16.315 169.965 16.6254C169.582 17.3457 169.395 18.1512 169.423 18.9637V19.2951C169.393 20.1129 169.577 20.9246 169.959 21.6517C170.138 21.9575 170.401 22.2076 170.717 22.3736C171.034 22.5396 171.391 22.6148 171.749 22.5907Z" fill="#425AF2"/>
<path d="M183.454 21.4304C183.456 21.2598 183.415 21.0914 183.336 20.9396C183.256 20.7878 183.141 20.6572 182.999 20.559C182.473 20.2472 181.891 20.0387 181.284 19.9453C180.284 19.7873 179.33 19.4166 178.49 18.859C178.18 18.6423 177.93 18.3534 177.761 18.0182C177.592 17.683 177.511 17.3119 177.523 16.9381C177.524 16.5156 177.624 16.0989 177.814 15.7201C178.004 15.3413 178.28 15.0106 178.621 14.7533C179.445 14.1159 180.474 13.7913 181.521 13.8389C182.601 13.7869 183.664 14.1203 184.515 14.7779C184.866 15.0415 185.148 15.3842 185.336 15.7772C185.525 16.1701 185.616 16.6019 185.6 17.0363V17.0915H183.367C183.368 16.8873 183.325 16.6853 183.24 16.4989C183.155 16.3126 183.03 16.1464 182.874 16.0114C182.505 15.6977 182.027 15.5352 181.54 15.5573C181.092 15.5308 180.649 15.6637 180.292 15.9316C180.153 16.0437 180.041 16.1851 179.964 16.3455C179.887 16.5058 179.848 16.6811 179.85 16.8583C179.845 17.0189 179.88 17.1781 179.952 17.3224C180.024 17.4667 180.13 17.5917 180.261 17.6868C180.785 17.9764 181.361 18.1639 181.958 18.2392C182.985 18.3947 183.965 18.7719 184.826 19.3438C185.136 19.5696 185.385 19.8655 185.553 20.2063C185.722 20.5471 185.804 20.9228 185.793 21.3016C185.791 21.742 185.681 22.1754 185.471 22.5646C185.262 22.9537 184.959 23.2869 184.59 23.5355C183.703 24.1496 182.635 24.4561 181.552 24.4069C180.398 24.4716 179.261 24.1081 178.365 23.3882C178.012 23.1141 177.727 22.7631 177.535 22.3628C177.342 21.9624 177.246 21.5235 177.255 21.0806V21.0254H179.419C179.408 21.274 179.459 21.5215 179.568 21.7462C179.677 21.9709 179.84 22.1659 180.043 22.3142C180.489 22.5946 181.011 22.7357 181.54 22.7192C182.024 22.749 182.506 22.6288 182.918 22.3755C183.084 22.2784 183.221 22.1398 183.315 21.9739C183.409 21.8079 183.457 21.6205 183.454 21.4304Z" fill="#425AF2"/>
<path d="M18.9438 36C29.0463 36 37.2359 27.9411 37.2359 18C37.2359 8.05888 29.0463 0 18.9438 0C8.84129 0 0.651611 8.05888 0.651611 18C0.651611 27.9411 8.84129 36 18.9438 36Z" fill="#425AF2"/>
<path d="M33.2635 18.0123C33.6036 17.4043 33.8655 16.757 34.0431 16.0853C34.3638 14.8777 34.4022 13.6144 34.1555 12.3902C33.9088 11.1659 33.3834 10.0126 32.6188 9.01682C31.8541 8.02105 30.8701 7.20873 29.7407 6.64088C28.6112 6.07302 27.3657 5.7644 26.0976 5.73818C25.3456 4.53632 24.2933 3.54396 23.0411 2.85562C21.7889 2.16729 20.3785 1.80591 18.9441 1.80591C17.5098 1.80591 16.0994 2.16729 14.8472 2.85562C13.595 3.54396 12.5427 4.53632 11.7907 5.73818C10.3437 5.76809 8.92925 6.1656 7.68449 6.89212C6.43974 7.61864 5.407 8.6495 4.68653 9.88462C3.96607 11.1197 3.58234 12.5172 3.57261 13.9413C3.56287 15.3654 3.92745 16.7678 4.63096 18.0123C3.9279 19.256 3.56327 20.6572 3.57243 22.0803C3.58159 23.5034 3.96423 24.9001 4.68324 26.1349C5.40226 27.3697 6.43327 28.4007 7.67633 29.1281C8.91939 29.8554 10.3323 30.2544 11.7782 30.2864C12.527 31.498 13.5802 32.4994 14.8364 33.1944C16.0925 33.8894 17.5093 34.2544 18.9504 34.2544C20.3914 34.2544 21.8082 33.8894 23.0644 33.1944C24.3205 32.4994 25.3737 31.498 26.1225 30.2864C27.5657 30.2482 28.9747 29.8453 30.2138 29.1162C31.4529 28.3872 32.4805 27.3567 33.1978 26.1238C33.9151 24.8909 34.2979 23.4971 34.3094 22.0765C34.3209 20.6559 33.9608 19.2563 33.2635 18.0123ZM32.6025 10.1323C33.1196 10.9941 33.4576 11.9484 33.5967 12.9397C33.7359 13.9311 33.6735 14.9398 33.4132 15.9073C33.2799 16.4049 33.0961 16.8881 32.8644 17.3495C32.1625 16.3425 31.2396 15.5035 30.1639 14.8947C29.0563 14.256 27.8145 13.8759 26.5342 13.7839L26.4905 13.7164C27.0627 12.5804 27.3604 11.3296 27.3604 10.0617C27.3604 8.79386 27.0627 7.54313 26.4905 6.40712C27.7395 6.4952 28.9482 6.88018 30.0127 7.52902C31.0773 8.17786 31.9659 9.07118 32.6025 10.1323ZM25.7421 29.6359C24.4481 29.6043 23.1827 29.2541 22.0616 28.6173C20.9406 27.9805 19.9995 27.0774 19.3246 25.9905C19.4056 25.8493 19.4805 25.7082 19.5553 25.5609C20.8377 25.4689 22.0815 25.0889 23.1913 24.4501C24.169 23.8832 25.018 23.125 25.686 22.2223C26.3205 23.3492 26.6534 24.6163 26.6534 25.9046C26.6534 27.1928 26.3205 28.4599 25.686 29.5868L25.7421 29.6359ZM11.2294 25.9537C11.2278 24.6653 11.5605 23.3978 12.1961 22.2714C12.916 23.2248 13.8363 24.0143 14.8942 24.5862C15.9521 25.158 17.1229 25.4989 18.3267 25.5854C18.3953 25.7327 18.4764 25.88 18.5512 26.0212C17.8771 27.1005 16.9387 27.9963 15.822 28.6266C14.7053 29.257 13.4458 29.6019 12.1586 29.6298C11.5269 28.5024 11.1985 27.2349 11.2044 25.9475L11.2294 25.9537ZM12.1711 6.35189C13.2743 6.37669 14.3592 6.63446 15.3524 7.10775C16.3455 7.58105 17.2238 8.25881 17.9276 9.09516C16.6768 9.24702 15.4766 9.67325 14.4155 10.3424C13.3544 11.0116 12.4596 11.9066 11.7969 12.9615C11.4051 12.0337 11.2038 11.0388 11.2044 10.0341C11.2017 8.74561 11.5345 7.4779 12.1711 6.35189ZM15.0337 10.7276C16.0585 10.1345 17.2093 9.78362 18.3953 9.70272C18.4514 9.78864 18.5076 9.87456 18.5575 9.96048C17.5324 11.7999 17.2517 13.9526 17.7716 15.9871C16.2516 14.5714 14.2511 13.7621 12.1586 13.7164V13.6734C12.832 12.4625 13.8254 11.4532 15.0337 10.7522V10.7276ZM26.6901 10.0341C26.6837 11.0412 26.4716 12.0367 26.0664 12.9615C24.9485 11.1465 23.1607 9.82716 21.0771 9.27927C20.7078 9.18608 20.3328 9.11638 19.9545 9.07061C20.5336 8.40246 21.2257 7.83774 22.0001 7.40133C23.1348 6.74035 24.4238 6.37887 25.7421 6.35189C26.3711 7.48002 26.6974 8.74736 26.6901 10.0341ZM18.7695 24.9472C18.3483 23.9515 18.1467 22.8793 18.1779 21.8013C18.209 20.7232 18.4723 19.664 18.9504 18.6935C19.4264 19.6649 19.6876 20.7246 19.7166 21.8026C19.7456 22.8806 19.5419 23.9524 19.1188 24.9472H18.7695ZM18.9504 17.3004C18.4424 16.2671 18.1785 15.1342 18.1785 13.9864C18.1785 12.8386 18.4424 11.7056 18.9504 10.6724C19.457 11.706 19.7201 12.8388 19.7201 13.9864C19.7201 15.134 19.457 16.2668 18.9504 17.3004ZM16.6179 18.0123C14.8382 18.5299 13.2804 19.6079 12.1836 21.0808C11.2039 19.3659 10.9422 17.3427 11.4539 15.4409C11.5478 15.1042 11.6645 14.7741 11.8031 14.4528C12.9072 16.1828 14.6219 17.4505 16.6179 18.0123ZM12.6014 14.4283C13.7395 14.5169 14.8433 14.853 15.8334 15.4123C16.8234 15.9716 17.675 16.7401 18.3267 17.6625C17.1883 17.5699 16.0847 17.2308 15.0949 16.6696C14.1052 16.1083 13.2537 15.3388 12.6014 14.416V14.4283ZM18.3205 18.3683C17.2744 19.8491 15.7268 20.9151 13.9548 21.3754C13.5169 21.4853 13.0705 21.5592 12.6201 21.5963C13.2695 20.6768 14.1171 19.9096 15.1024 19.3495C16.0878 18.7894 17.1866 18.4501 18.3205 18.356V18.3683ZM14.1045 22.0014C15.4781 21.6523 16.7382 20.9636 17.7654 20.0007C17.3503 21.6269 17.446 23.3388 18.0398 24.9104C16.0692 24.6819 14.263 23.7175 12.9943 22.2162C13.3695 22.1673 13.7406 22.0914 14.1045 21.9891V22.0014ZM20.1291 19.97C21.4424 21.1956 23.1219 21.9724 24.9189 22.1855C23.6505 23.6998 21.8356 24.6719 19.8547 24.8981C20.4505 23.3205 20.5461 21.6022 20.1291 19.97ZM19.5865 18.356C20.7175 18.4473 21.814 18.7829 22.7982 19.3387C23.7824 19.8945 24.6299 20.657 25.2806 21.5718C24.1491 21.4793 23.0521 21.1433 22.0671 20.5876C21.0821 20.0319 20.2331 19.2701 19.5803 18.356H19.5865ZM21.2767 18.0123C23.2794 17.4429 24.9955 16.1611 26.0914 14.416C26.5401 15.4788 26.7384 16.6277 26.6714 17.7767C26.6044 18.9257 26.2739 20.0448 25.7047 21.0501C24.6055 19.5887 23.0503 18.5217 21.2767 18.0123ZM19.5678 17.6625C20.2214 16.7444 21.0728 15.9796 22.0614 15.4226C23.05 14.8657 24.1514 14.5303 25.2868 14.4405C24.6317 15.3561 23.7796 16.1183 22.7911 16.673C21.8027 17.2278 20.7021 17.5614 19.5678 17.6502V17.6625ZM20.9087 9.97276C21.893 10.2242 22.8169 10.6649 23.6273 11.2695C24.4376 11.8741 25.1182 12.6306 25.6299 13.4954C25.6735 13.5629 25.7109 13.6366 25.7483 13.7041V13.7593C23.6552 13.8073 21.6548 14.6187 20.1353 16.0362C20.6579 13.9965 20.3726 11.8375 19.337 9.9973C19.3932 9.91138 19.4431 9.82547 19.5054 9.73955C19.9789 9.77263 20.4484 9.84656 20.9087 9.96048V9.97276ZM11.6909 21.5043C11.7115 21.5404 11.7344 21.5753 11.7595 21.6086C10.479 21.5726 9.22745 21.2253 8.11641 20.5978C7.00538 19.9704 6.06938 19.0821 5.39184 18.0123C6.00408 17.0352 6.83337 16.2073 7.81742 15.5908C8.80146 14.9743 9.91468 14.5852 11.0735 14.4528C10.6394 15.5999 10.4697 16.8274 10.5765 18.0469C10.6833 19.2663 11.0639 20.4472 11.6909 21.5043ZM26.8211 14.4528C27.9796 14.583 29.0929 14.9712 30.0762 15.588C31.0596 16.2047 31.8873 17.0338 32.4964 18.0123C31.8227 19.0814 30.8901 19.9695 29.7822 20.5971C28.6742 21.2247 27.4254 21.5723 26.1475 21.6086C26.7981 20.542 27.1965 19.345 27.3131 18.1063C27.4297 16.8675 27.2615 15.6189 26.8211 14.4528ZM18.9441 2.43644C20.1988 2.43816 21.4342 2.73951 22.5444 3.31461C23.6546 3.88971 24.6064 4.72137 25.318 5.73818C24.1073 5.82263 22.9295 6.16425 21.8658 6.73953C20.802 7.31481 19.8776 8.11009 19.1562 9.07061H18.7259C18.0526 8.17755 17.2044 7.42632 16.2312 6.86127C15.1156 6.21315 13.8624 5.8287 12.5703 5.73818C13.2811 4.72062 14.2327 3.88839 15.3431 3.3132C16.4535 2.73801 17.6893 2.43712 18.9441 2.43644ZM5.29205 10.1446C5.92586 9.08038 6.81247 8.18329 7.87588 7.53021C8.93929 6.87712 10.1478 6.48754 11.3978 6.39485C10.8287 7.53393 10.5327 8.78631 10.5327 10.0556C10.5327 11.3249 10.8287 12.5773 11.3978 13.7164L11.3666 13.7777C10.1031 13.8649 8.87618 14.2334 7.77851 14.8553C6.68085 15.4773 5.74108 16.3364 5.03011 17.3679C4.46183 16.2369 4.18824 14.9846 4.23397 13.7237C4.27969 12.4628 4.64329 11.2329 5.29205 10.1446ZM5.29205 25.8493C4.64329 24.7611 4.27969 23.5311 4.23397 22.2702C4.18824 21.0093 4.46183 19.757 5.03011 18.626C5.74678 19.6699 6.69643 20.5388 7.80651 21.1664C8.9166 21.7939 10.1578 22.1635 11.4352 22.2469C10.8488 23.3886 10.5433 24.6499 10.5433 25.9291C10.5386 27.2007 10.8309 28.4563 11.3978 29.5991C10.1475 29.5074 8.9386 29.1182 7.87502 28.4651C6.81145 27.8119 5.92504 26.9142 5.29205 25.8493ZM18.9441 33.5698C17.6901 33.5711 16.4545 33.273 15.3432 32.7012C14.232 32.1293 13.2783 31.3007 12.564 30.2864C13.8425 30.1924 15.0822 29.8117 16.1881 29.1734C17.294 28.5352 18.2367 27.6563 18.9441 26.6042C19.6433 27.6401 20.576 28.5033 21.6696 29.1265C22.777 29.7882 24.0265 30.1855 25.318 30.2864C24.6051 31.3006 23.6526 32.1292 22.5423 32.7012C21.4321 33.2731 20.1973 33.5711 18.9441 33.5698ZM32.6025 25.8616C32.0916 26.727 31.4112 27.484 30.6008 28.0888C29.7904 28.6935 28.866 29.1338 27.8813 29.3843C27.4244 29.5051 26.9564 29.5812 26.4843 29.6114C27.0646 28.4679 27.3666 27.2072 27.3666 25.9291C27.3666 24.651 27.0646 23.3904 26.4843 22.2469C27.7557 22.1567 28.9899 21.784 30.0939 21.1569C31.1979 20.5297 32.143 19.6644 32.8582 18.626C33.0898 19.0874 33.2737 19.5706 33.407 20.0682C33.6708 21.038 33.7355 22.0499 33.5974 23.0446C33.4593 24.0393 33.121 24.997 32.6025 25.8616Z" fill="white"/>
</svg>
